<mxfile host="app.diagrams.net" modified="2021-03-06T10:40:27.283Z" agent="5.0 (Windows NT 10.0; Win64; x64) AppleWebKit/537.36 (KHTML, like Gecko) Chrome/88.0.4324.190 Safari/537.36" etag="wOpYmtvDdjYYOmYUUWY0" version="14.4.4" type="github">
  <diagram id="5NGgrfY79Ag0wGYLFPvY" name="Page-1">
    <mxGraphModel dx="1447" dy="750" grid="1" gridSize="10" guides="1" tooltips="1" connect="1" arrows="1" fold="1" page="1" pageScale="1" pageWidth="2000" pageHeight="1169" math="0" shadow="0">
      <root>
        <mxCell id="0" />
        <mxCell id="1" parent="0" />
        <mxCell id="NhNGR2v7om8BQXgXqzxG-533" value="" style="whiteSpace=wrap;html=1;" vertex="1" parent="1">
          <mxGeometry x="1080" y="365" width="460" height="755" as="geometry" />
        </mxCell>
        <mxCell id="NhNGR2v7om8BQXgXqzxG-47" value="" style="whiteSpace=wrap;html=1;aspect=fixed;" vertex="1" parent="1">
          <mxGeometry x="340" y="130" width="550" height="550" as="geometry" />
        </mxCell>
        <mxCell id="NhNGR2v7om8BQXgXqzxG-2" value="&lt;h2&gt;Tamu&lt;/h2&gt;" style="shape=umlActor;verticalLabelPosition=bottom;verticalAlign=top;html=1;outlineConnect=0;" vertex="1" parent="1">
          <mxGeometry x="180" y="240" width="70" height="110" as="geometry" />
        </mxCell>
        <mxCell id="NhNGR2v7om8BQXgXqzxG-4" value="" style="endArrow=none;html=1;entryX=0;entryY=0.5;entryDx=0;entryDy=0;" edge="1" parent="1" target="NhNGR2v7om8BQXgXqzxG-14">
          <mxGeometry width="50" height="50" relative="1" as="geometry">
            <mxPoint x="250" y="290" as="sourcePoint" />
            <mxPoint x="400" y="290" as="targetPoint" />
          </mxGeometry>
        </mxCell>
        <mxCell id="NhNGR2v7om8BQXgXqzxG-9" value="Halaman&lt;br&gt;Registrasi" style="ellipse;whiteSpace=wrap;html=1;" vertex="1" parent="1">
          <mxGeometry x="400" y="140" width="120" height="80" as="geometry" />
        </mxCell>
        <mxCell id="NhNGR2v7om8BQXgXqzxG-12" value="" style="endArrow=none;html=1;entryX=0;entryY=0.5;entryDx=0;entryDy=0;" edge="1" parent="1" target="NhNGR2v7om8BQXgXqzxG-9">
          <mxGeometry width="50" height="50" relative="1" as="geometry">
            <mxPoint x="250" y="290" as="sourcePoint" />
            <mxPoint x="400" y="200" as="targetPoint" />
          </mxGeometry>
        </mxCell>
        <mxCell id="NhNGR2v7om8BQXgXqzxG-14" value="Halaman&lt;br&gt;Login" style="ellipse;whiteSpace=wrap;html=1;" vertex="1" parent="1">
          <mxGeometry x="400" y="230" width="120" height="80" as="geometry" />
        </mxCell>
        <mxCell id="NhNGR2v7om8BQXgXqzxG-18" value="" style="endArrow=none;html=1;entryX=0;entryY=0.5;entryDx=0;entryDy=0;" edge="1" parent="1" target="NhNGR2v7om8BQXgXqzxG-25">
          <mxGeometry width="50" height="50" relative="1" as="geometry">
            <mxPoint x="250" y="290" as="sourcePoint" />
            <mxPoint x="400" y="390" as="targetPoint" />
          </mxGeometry>
        </mxCell>
        <mxCell id="NhNGR2v7om8BQXgXqzxG-19" value="" style="endArrow=none;html=1;entryX=0;entryY=0.5;entryDx=0;entryDy=0;" edge="1" parent="1" target="NhNGR2v7om8BQXgXqzxG-26">
          <mxGeometry width="50" height="50" relative="1" as="geometry">
            <mxPoint x="250" y="290" as="sourcePoint" />
            <mxPoint x="400" y="480" as="targetPoint" />
          </mxGeometry>
        </mxCell>
        <mxCell id="NhNGR2v7om8BQXgXqzxG-25" value="Halaman&lt;br&gt;Home/Beranda" style="ellipse;whiteSpace=wrap;html=1;" vertex="1" parent="1">
          <mxGeometry x="400" y="320" width="120" height="80" as="geometry" />
        </mxCell>
        <mxCell id="NhNGR2v7om8BQXgXqzxG-26" value="Halaman&lt;br&gt;Kamar" style="ellipse;whiteSpace=wrap;html=1;" vertex="1" parent="1">
          <mxGeometry x="400" y="410" width="120" height="80" as="geometry" />
        </mxCell>
        <mxCell id="NhNGR2v7om8BQXgXqzxG-27" value="" style="endArrow=none;html=1;entryX=0;entryY=0.5;entryDx=0;entryDy=0;" edge="1" parent="1" target="NhNGR2v7om8BQXgXqzxG-29">
          <mxGeometry width="50" height="50" relative="1" as="geometry">
            <mxPoint x="520" y="360" as="sourcePoint" />
            <mxPoint x="600" y="330" as="targetPoint" />
          </mxGeometry>
        </mxCell>
        <mxCell id="NhNGR2v7om8BQXgXqzxG-29" value="&lt;span&gt;Halaman Ketersediaan Kamar&lt;/span&gt;" style="ellipse;whiteSpace=wrap;html=1;" vertex="1" parent="1">
          <mxGeometry x="580" y="180" width="120" height="80" as="geometry" />
        </mxCell>
        <mxCell id="NhNGR2v7om8BQXgXqzxG-30" value="" style="endArrow=none;html=1;exitX=1;exitY=0.5;exitDx=0;exitDy=0;entryX=0;entryY=0.5;entryDx=0;entryDy=0;" edge="1" parent="1" source="NhNGR2v7om8BQXgXqzxG-25" target="NhNGR2v7om8BQXgXqzxG-31">
          <mxGeometry width="50" height="50" relative="1" as="geometry">
            <mxPoint x="540" y="400" as="sourcePoint" />
            <mxPoint x="610" y="400" as="targetPoint" />
          </mxGeometry>
        </mxCell>
        <mxCell id="NhNGR2v7om8BQXgXqzxG-31" value="Halaman Data Pemesanan" style="ellipse;whiteSpace=wrap;html=1;" vertex="1" parent="1">
          <mxGeometry x="580" y="270" width="120" height="80" as="geometry" />
        </mxCell>
        <mxCell id="NhNGR2v7om8BQXgXqzxG-32" value="" style="endArrow=none;html=1;exitX=1;exitY=0.5;exitDx=0;exitDy=0;entryX=0;entryY=0.5;entryDx=0;entryDy=0;" edge="1" parent="1" source="NhNGR2v7om8BQXgXqzxG-25" target="NhNGR2v7om8BQXgXqzxG-33">
          <mxGeometry width="50" height="50" relative="1" as="geometry">
            <mxPoint x="534" y="430" as="sourcePoint" />
            <mxPoint x="600" y="440" as="targetPoint" />
          </mxGeometry>
        </mxCell>
        <mxCell id="NhNGR2v7om8BQXgXqzxG-33" value="Halaman Review Pemesanan" style="ellipse;whiteSpace=wrap;html=1;" vertex="1" parent="1">
          <mxGeometry x="580" y="370" width="120" height="80" as="geometry" />
        </mxCell>
        <mxCell id="NhNGR2v7om8BQXgXqzxG-34" value="" style="endArrow=none;html=1;exitX=1;exitY=0.5;exitDx=0;exitDy=0;entryX=0;entryY=0.5;entryDx=0;entryDy=0;" edge="1" parent="1" source="NhNGR2v7om8BQXgXqzxG-25" target="NhNGR2v7om8BQXgXqzxG-35">
          <mxGeometry width="50" height="50" relative="1" as="geometry">
            <mxPoint x="520" y="500" as="sourcePoint" />
            <mxPoint x="590" y="510" as="targetPoint" />
          </mxGeometry>
        </mxCell>
        <mxCell id="NhNGR2v7om8BQXgXqzxG-35" value="Halaman Pembayaran" style="ellipse;whiteSpace=wrap;html=1;" vertex="1" parent="1">
          <mxGeometry x="580" y="490" width="120" height="80" as="geometry" />
        </mxCell>
        <mxCell id="NhNGR2v7om8BQXgXqzxG-36" value="Halaman&lt;br&gt;Galleri" style="ellipse;whiteSpace=wrap;html=1;" vertex="1" parent="1">
          <mxGeometry x="400" y="500" width="120" height="80" as="geometry" />
        </mxCell>
        <mxCell id="NhNGR2v7om8BQXgXqzxG-37" value="Halaman&lt;br&gt;Tentang Hotel" style="ellipse;whiteSpace=wrap;html=1;" vertex="1" parent="1">
          <mxGeometry x="400" y="590" width="120" height="80" as="geometry" />
        </mxCell>
        <mxCell id="NhNGR2v7om8BQXgXqzxG-38" value="" style="endArrow=none;html=1;entryX=0;entryY=0.5;entryDx=0;entryDy=0;" edge="1" parent="1" target="NhNGR2v7om8BQXgXqzxG-36">
          <mxGeometry width="50" height="50" relative="1" as="geometry">
            <mxPoint x="250" y="290" as="sourcePoint" />
            <mxPoint x="320" y="470" as="targetPoint" />
          </mxGeometry>
        </mxCell>
        <mxCell id="NhNGR2v7om8BQXgXqzxG-39" value="" style="endArrow=none;html=1;entryX=0;entryY=0.5;entryDx=0;entryDy=0;" edge="1" parent="1" target="NhNGR2v7om8BQXgXqzxG-37">
          <mxGeometry width="50" height="50" relative="1" as="geometry">
            <mxPoint x="250" y="290" as="sourcePoint" />
            <mxPoint x="270" y="515" as="targetPoint" />
          </mxGeometry>
        </mxCell>
        <mxCell id="NhNGR2v7om8BQXgXqzxG-45" style="edgeStyle=orthogonalEdgeStyle;rounded=0;orthogonalLoop=1;jettySize=auto;html=1;" edge="1" parent="1" target="NhNGR2v7om8BQXgXqzxG-29">
          <mxGeometry relative="1" as="geometry">
            <mxPoint x="935" y="210" as="targetPoint" />
            <mxPoint x="935" y="270" as="sourcePoint" />
            <Array as="points">
              <mxPoint x="935" y="220" />
            </Array>
          </mxGeometry>
        </mxCell>
        <mxCell id="NhNGR2v7om8BQXgXqzxG-41" value="&lt;h2&gt;Admin&lt;/h2&gt;" style="shape=umlActor;verticalLabelPosition=bottom;verticalAlign=top;html=1;outlineConnect=0;" vertex="1" parent="1">
          <mxGeometry x="900" y="690" width="70" height="110" as="geometry" />
        </mxCell>
        <mxCell id="NhNGR2v7om8BQXgXqzxG-48" value="&amp;lt;&amp;lt;include&amp;gt;&amp;gt;" style="text;html=1;align=center;verticalAlign=middle;resizable=0;points=[];autosize=1;" vertex="1" parent="1">
          <mxGeometry x="530" y="360" width="80" height="20" as="geometry" />
        </mxCell>
        <mxCell id="NhNGR2v7om8BQXgXqzxG-54" value="" style="endArrow=none;dashed=1;html=1;dashPattern=1 3;strokeWidth=2;" edge="1" parent="1" source="NhNGR2v7om8BQXgXqzxG-49">
          <mxGeometry width="50" height="50" relative="1" as="geometry">
            <mxPoint x="639.5" y="490" as="sourcePoint" />
            <mxPoint x="639.5" y="450" as="targetPoint" />
          </mxGeometry>
        </mxCell>
        <mxCell id="NhNGR2v7om8BQXgXqzxG-49" value="&amp;lt;&amp;lt;include&amp;gt;&amp;gt;" style="text;html=1;align=center;verticalAlign=middle;resizable=0;points=[];autosize=1;" vertex="1" parent="1">
          <mxGeometry x="600" y="460" width="80" height="20" as="geometry" />
        </mxCell>
        <mxCell id="NhNGR2v7om8BQXgXqzxG-55" value="" style="endArrow=none;dashed=1;html=1;dashPattern=1 3;strokeWidth=2;" edge="1" parent="1" target="NhNGR2v7om8BQXgXqzxG-49">
          <mxGeometry width="50" height="50" relative="1" as="geometry">
            <mxPoint x="639.5" y="490" as="sourcePoint" />
            <mxPoint x="639.5" y="450" as="targetPoint" />
          </mxGeometry>
        </mxCell>
        <mxCell id="NhNGR2v7om8BQXgXqzxG-56" style="edgeStyle=orthogonalEdgeStyle;rounded=0;orthogonalLoop=1;jettySize=auto;html=1;jumpSize=6;entryX=1;entryY=0.375;entryDx=0;entryDy=0;entryPerimeter=0;" edge="1" parent="1">
          <mxGeometry relative="1" as="geometry">
            <mxPoint x="530" y="623" as="targetPoint" />
            <mxPoint x="561" y="623" as="sourcePoint" />
            <Array as="points">
              <mxPoint x="559" y="623" />
              <mxPoint x="559" y="623" />
            </Array>
          </mxGeometry>
        </mxCell>
        <mxCell id="NhNGR2v7om8BQXgXqzxG-59" style="edgeStyle=orthogonalEdgeStyle;rounded=0;orthogonalLoop=1;jettySize=auto;html=1;" edge="1" parent="1">
          <mxGeometry relative="1" as="geometry">
            <mxPoint x="530" y="360" as="targetPoint" />
            <mxPoint x="935" y="630" as="sourcePoint" />
            <Array as="points">
              <mxPoint x="935" y="360" />
            </Array>
          </mxGeometry>
        </mxCell>
        <mxCell id="NhNGR2v7om8BQXgXqzxG-61" style="edgeStyle=orthogonalEdgeStyle;rounded=0;orthogonalLoop=1;jettySize=auto;html=1;" edge="1" parent="1">
          <mxGeometry relative="1" as="geometry">
            <mxPoint x="530" y="460" as="targetPoint" />
            <mxPoint x="935" y="455" as="sourcePoint" />
            <Array as="points">
              <mxPoint x="935" y="460" />
            </Array>
          </mxGeometry>
        </mxCell>
        <mxCell id="NhNGR2v7om8BQXgXqzxG-67" style="edgeStyle=orthogonalEdgeStyle;rounded=0;orthogonalLoop=1;jettySize=auto;html=1;" edge="1" parent="1">
          <mxGeometry relative="1" as="geometry">
            <mxPoint x="530" y="270" as="targetPoint" />
            <mxPoint x="935" y="360" as="sourcePoint" />
            <Array as="points">
              <mxPoint x="935" y="270" />
            </Array>
          </mxGeometry>
        </mxCell>
        <mxCell id="NhNGR2v7om8BQXgXqzxG-69" style="edgeStyle=orthogonalEdgeStyle;rounded=0;orthogonalLoop=1;jettySize=auto;html=1;" edge="1" parent="1">
          <mxGeometry relative="1" as="geometry">
            <mxPoint x="530" y="537.75" as="targetPoint" />
            <mxPoint x="935" y="690" as="sourcePoint" />
            <Array as="points">
              <mxPoint x="935" y="622.75" />
              <mxPoint x="560" y="622.75" />
              <mxPoint x="560" y="537.75" />
            </Array>
          </mxGeometry>
        </mxCell>
        <mxCell id="NhNGR2v7om8BQXgXqzxG-504" value="" style="endArrow=none;html=1;" edge="1" parent="1">
          <mxGeometry width="50" height="50" relative="1" as="geometry">
            <mxPoint x="980" y="740" as="sourcePoint" />
            <mxPoint x="1220" y="610" as="targetPoint" />
          </mxGeometry>
        </mxCell>
        <mxCell id="NhNGR2v7om8BQXgXqzxG-508" value="" style="endArrow=none;html=1;" edge="1" parent="1">
          <mxGeometry width="50" height="50" relative="1" as="geometry">
            <mxPoint x="980" y="740" as="sourcePoint" />
            <mxPoint x="1220" y="700" as="targetPoint" />
          </mxGeometry>
        </mxCell>
        <mxCell id="NhNGR2v7om8BQXgXqzxG-509" value="" style="endArrow=none;html=1;entryX=0;entryY=0.5;entryDx=0;entryDy=0;" edge="1" parent="1" target="NhNGR2v7om8BQXgXqzxG-513">
          <mxGeometry width="50" height="50" relative="1" as="geometry">
            <mxPoint x="980" y="740" as="sourcePoint" />
            <mxPoint x="1220" y="770" as="targetPoint" />
          </mxGeometry>
        </mxCell>
        <mxCell id="NhNGR2v7om8BQXgXqzxG-510" value="" style="endArrow=none;html=1;entryX=0;entryY=0.5;entryDx=0;entryDy=0;" edge="1" parent="1" target="NhNGR2v7om8BQXgXqzxG-514">
          <mxGeometry width="50" height="50" relative="1" as="geometry">
            <mxPoint x="980" y="740" as="sourcePoint" />
            <mxPoint x="1220" y="850" as="targetPoint" />
          </mxGeometry>
        </mxCell>
        <mxCell id="NhNGR2v7om8BQXgXqzxG-511" value="&lt;span&gt;Halaman&lt;/span&gt;&lt;br&gt;&lt;span&gt;Data Reservasi&lt;/span&gt;" style="ellipse;whiteSpace=wrap;html=1;" vertex="1" parent="1">
          <mxGeometry x="1220" y="570" width="120" height="80" as="geometry" />
        </mxCell>
        <mxCell id="NhNGR2v7om8BQXgXqzxG-512" value="Halaman&lt;br&gt;Data Tamu Hotel" style="ellipse;whiteSpace=wrap;html=1;" vertex="1" parent="1">
          <mxGeometry x="1220" y="660" width="120" height="80" as="geometry" />
        </mxCell>
        <mxCell id="NhNGR2v7om8BQXgXqzxG-513" value="Halaman &lt;br&gt;Data Tipe Kamar" style="ellipse;whiteSpace=wrap;html=1;" vertex="1" parent="1">
          <mxGeometry x="1220" y="750" width="120" height="80" as="geometry" />
        </mxCell>
        <mxCell id="NhNGR2v7om8BQXgXqzxG-514" value="Halaman&lt;br&gt;Laporan Reservasi" style="ellipse;whiteSpace=wrap;html=1;" vertex="1" parent="1">
          <mxGeometry x="1220" y="840" width="120" height="80" as="geometry" />
        </mxCell>
        <mxCell id="NhNGR2v7om8BQXgXqzxG-515" value="" style="endArrow=none;html=1;entryX=0;entryY=0.5;entryDx=0;entryDy=0;" edge="1" parent="1" target="NhNGR2v7om8BQXgXqzxG-518">
          <mxGeometry width="50" height="50" relative="1" as="geometry">
            <mxPoint x="980" y="740" as="sourcePoint" />
            <mxPoint x="1220" y="530" as="targetPoint" />
          </mxGeometry>
        </mxCell>
        <mxCell id="NhNGR2v7om8BQXgXqzxG-516" value="" style="endArrow=none;html=1;entryX=0;entryY=0.5;entryDx=0;entryDy=0;" edge="1" parent="1" target="NhNGR2v7om8BQXgXqzxG-517">
          <mxGeometry width="50" height="50" relative="1" as="geometry">
            <mxPoint x="980" y="740" as="sourcePoint" />
            <mxPoint x="1220" y="970" as="targetPoint" />
          </mxGeometry>
        </mxCell>
        <mxCell id="NhNGR2v7om8BQXgXqzxG-517" value="Halaman&lt;br&gt;Profile Admin" style="ellipse;whiteSpace=wrap;html=1;" vertex="1" parent="1">
          <mxGeometry x="1220" y="930" width="120" height="80" as="geometry" />
        </mxCell>
        <mxCell id="NhNGR2v7om8BQXgXqzxG-518" value="&lt;span&gt;Halaman&lt;/span&gt;&lt;br&gt;&lt;span&gt;Dashboard&lt;/span&gt;" style="ellipse;whiteSpace=wrap;html=1;" vertex="1" parent="1">
          <mxGeometry x="1220" y="480" width="120" height="80" as="geometry" />
        </mxCell>
        <mxCell id="NhNGR2v7om8BQXgXqzxG-519" value="" style="endArrow=none;html=1;entryX=0;entryY=0.5;entryDx=0;entryDy=0;" edge="1" parent="1" target="NhNGR2v7om8BQXgXqzxG-521">
          <mxGeometry width="50" height="50" relative="1" as="geometry">
            <mxPoint x="980" y="740" as="sourcePoint" />
            <mxPoint x="1220" y="450" as="targetPoint" />
          </mxGeometry>
        </mxCell>
        <mxCell id="NhNGR2v7om8BQXgXqzxG-521" value="&lt;span&gt;Halaman&lt;/span&gt;&lt;br&gt;&lt;span&gt;Login&lt;/span&gt;" style="ellipse;whiteSpace=wrap;html=1;" vertex="1" parent="1">
          <mxGeometry x="1220" y="390" width="120" height="80" as="geometry" />
        </mxCell>
        <mxCell id="NhNGR2v7om8BQXgXqzxG-524" value="Check In&lt;br&gt;Chechk Out" style="ellipse;whiteSpace=wrap;html=1;" vertex="1" parent="1">
          <mxGeometry x="1410" y="530" width="120" height="80" as="geometry" />
        </mxCell>
        <mxCell id="NhNGR2v7om8BQXgXqzxG-525" value="Riwayat Reservasi" style="ellipse;whiteSpace=wrap;html=1;" vertex="1" parent="1">
          <mxGeometry x="1410" y="620" width="120" height="80" as="geometry" />
        </mxCell>
        <mxCell id="NhNGR2v7om8BQXgXqzxG-527" value="" style="endArrow=classic;html=1;entryX=1.02;entryY=0.453;entryDx=0;entryDy=0;entryPerimeter=0;exitX=0;exitY=0.5;exitDx=0;exitDy=0;" edge="1" parent="1" source="NhNGR2v7om8BQXgXqzxG-524" target="NhNGR2v7om8BQXgXqzxG-511">
          <mxGeometry width="50" height="50" relative="1" as="geometry">
            <mxPoint x="1340" y="660" as="sourcePoint" />
            <mxPoint x="1390" y="610" as="targetPoint" />
            <Array as="points">
              <mxPoint x="1342" y="606" />
            </Array>
          </mxGeometry>
        </mxCell>
        <mxCell id="NhNGR2v7om8BQXgXqzxG-528" value="" style="endArrow=classic;html=1;entryX=1;entryY=0.578;entryDx=0;entryDy=0;entryPerimeter=0;exitX=0;exitY=0.5;exitDx=0;exitDy=0;" edge="1" parent="1" source="NhNGR2v7om8BQXgXqzxG-525" target="NhNGR2v7om8BQXgXqzxG-511">
          <mxGeometry width="50" height="50" relative="1" as="geometry">
            <mxPoint x="1419.9999999999998" y="580" as="sourcePoint" />
            <mxPoint x="1352.3999999999999" y="616.24" as="targetPoint" />
          </mxGeometry>
        </mxCell>
        <mxCell id="NhNGR2v7om8BQXgXqzxG-529" value="" style="endArrow=none;html=1;entryX=0;entryY=0.5;entryDx=0;entryDy=0;" edge="1" parent="1" target="NhNGR2v7om8BQXgXqzxG-530">
          <mxGeometry width="50" height="50" relative="1" as="geometry">
            <mxPoint x="980" y="740" as="sourcePoint" />
            <mxPoint x="1220" y="1080" as="targetPoint" />
          </mxGeometry>
        </mxCell>
        <mxCell id="NhNGR2v7om8BQXgXqzxG-530" value="Halaman&lt;br&gt;Logout" style="ellipse;whiteSpace=wrap;html=1;" vertex="1" parent="1">
          <mxGeometry x="1220" y="1020" width="120" height="80" as="geometry" />
        </mxCell>
      </root>
    </mxGraphModel>
  </diagram>
</mxfile>
